<svg width="56" height="62" viewBox="0 0 56 62" fill="none" xmlns="http://www.w3.org/2000/svg">
<path d="M5 16V11C5 5.47715 9.47715 1 15 1H29H43C48.5228 1 53 5.47715 53 11V16V46V51C53 56.5228 48.5228 61 43 61H15C9.47715 61 5 56.5228 5 51V46" stroke="black" stroke-width="2"/>
<path d="M34.7071 31.7071C35.0976 31.3166 35.0976 30.6834 34.7071 30.2929L28.3431 23.9289C27.9526 23.5384 27.3195 23.5384 26.9289 23.9289C26.5384 24.3195 26.5384 24.9526 26.9289 25.3431L32.5858 31L26.9289 36.6569C26.5384 37.0474 26.5384 37.6805 26.9289 38.0711C27.3195 38.4616 27.9526 38.4616 28.3431 38.0711L34.7071 31.7071ZM0 32L34 32V30L0 30L0 32Z" fill="black"/>
</svg>
