<svg width="53" height="62" viewBox="0 0 53 62" fill="none" xmlns="http://www.w3.org/2000/svg">
<path d="M49 46V51C49 56.5228 44.5228 61 39 61H11C5.47715 61 1 56.5228 1 51V31V11C1 5.47715 5.47715 1 11 1H25H39C44.5228 1 49 5.47715 49 11V16" stroke="black" stroke-width="2"/>
<path d="M52.7071 31.7071C53.0976 31.3166 53.0976 30.6834 52.7071 30.2929L46.3431 23.9289C45.9526 23.5384 45.3195 23.5384 44.9289 23.9289C44.5384 24.3195 44.5384 24.9526 44.9289 25.3431L50.5858 31L44.9289 36.6569C44.5384 37.0474 44.5384 37.6805 44.9289 38.0711C45.3195 38.4616 45.9526 38.4616 46.3431 38.0711L52.7071 31.7071ZM18 32L52 32V30L18 30V32Z" fill="black"/>
</svg>
