<svg width="54" height="61" viewBox="0 0 54 61" fill="none" xmlns="http://www.w3.org/2000/svg">
<path d="M1.00027 1C77.7393 1 44.1868 1 52.9696 1M1.00027 1L1.00001 14.8678C1 15.1014 1.08178 15.3276 1.23114 15.5072L17.1386 34.6351C17.2879 34.8147 17.3697 35.0409 17.3697 35.2745V59.227C17.3697 60.0058 18.2206 60.4857 18.887 60.0828L36.5034 49.4341C36.803 49.253 36.9861 48.9284 36.9861 48.5783V35.2679C36.9861 35.0383 37.0651 34.8158 37.2098 34.6376L52.7459 15.5047C52.8906 15.3265 52.9696 15.1039 52.9696 14.8744V1M1.00027 1H52.9696" stroke="black"/>
</svg>
