<svg width="96" height="96" viewBox="0 0 96 96" fill="none" xmlns="http://www.w3.org/2000/svg">
<path d="M26.6698 30.5474C26.2423 35.1074 25.9423 43.1774 28.6348 46.6124C28.6348 46.6124 27.3673 37.7474 38.7298 26.6249C43.3048 22.1474 44.3623 16.0574 42.7648 11.4899C41.8573 8.90242 40.1998 6.76492 38.7598 5.27242C37.9198 4.39492 38.5648 2.94742 39.7873 2.99992C47.1823 3.32992 59.1673 5.38492 64.2598 18.1649C66.4948 23.7749 66.6598 29.5724 65.5948 35.4674C64.9198 39.2324 62.5198 47.6024 67.9948 48.6299C71.9023 49.3649 73.7923 46.2599 74.6398 44.0249C74.9923 43.0949 76.2148 42.8624 76.8748 43.6049C83.4748 51.1124 84.0373 59.9549 82.6723 67.5674C80.0323 82.2824 65.1298 92.9924 50.3248 92.9924C31.8298 92.9924 17.1073 82.4099 13.2898 63.2549C11.7523 55.5224 12.5323 40.2224 24.4573 29.4224C25.3423 28.6124 26.7898 29.3324 26.6698 30.5474Z" fill="url(#paint0_radial_196_213)"/>
<path d="M57.0825 58.0651C50.265 49.2901 53.3175 39.2776 54.99 35.2876C55.215 34.7626 54.615 34.2676 54.1425 34.5901C51.21 36.5851 45.2025 41.2801 42.405 47.8876C38.6175 56.8201 38.8875 61.1926 41.13 66.5326C42.48 69.7501 40.9125 70.4326 40.125 70.5526C39.36 70.6726 38.655 70.1626 38.0925 69.6301C36.48 68.0926 35.3175 66.0901 34.7625 63.9301C34.6425 63.4651 34.035 63.3376 33.7575 63.7201C31.6575 66.6226 30.57 71.2801 30.5175 74.5726C30.3525 84.7501 38.76 93.0001 48.93 93.0001C61.7475 93.0001 71.085 78.8251 63.72 66.9751C61.5825 63.5251 59.5725 61.2676 57.0825 58.0651Z" fill="url(#paint1_radial_196_213)"/>
<defs>
<radialGradient id="paint0_radial_196_213" cx="0" cy="0" r="1" gradientUnits="userSpaceOnUse" gradientTransform="translate(46.6618 93.2257) rotate(-179.751) scale(52.9408 86.8652)">
<stop offset="0.3144" stop-color="#FF9800"/>
<stop offset="0.6616" stop-color="#FF6D00"/>
<stop offset="0.9715" stop-color="#F44336"/>
</radialGradient>
<radialGradient id="paint1_radial_196_213" cx="0" cy="0" r="1" gradientUnits="userSpaceOnUse" gradientTransform="translate(49.6349 40.5442) rotate(90.5787) scale(55.3922 41.6868)">
<stop offset="0.2141" stop-color="#FFF176"/>
<stop offset="0.3275" stop-color="#FFF27D"/>
<stop offset="0.4868" stop-color="#FFF48F"/>
<stop offset="0.6722" stop-color="#FFF7AD"/>
<stop offset="0.7931" stop-color="#FFF9C4"/>
<stop offset="0.8221" stop-color="#FFF8BD" stop-opacity="0.804"/>
<stop offset="0.8627" stop-color="#FFF6AB" stop-opacity="0.529"/>
<stop offset="0.9101" stop-color="#FFF38D" stop-opacity="0.2088"/>
<stop offset="0.9409" stop-color="#FFF176" stop-opacity="0"/>
</radialGradient>
</defs>
</svg>
