<svg width="109" height="109" viewBox="0 0 109 109" fill="none" xmlns="http://www.w3.org/2000/svg">
<path d="M16 42.3572C16 58.8312 29.8414 75.0343 51.6696 88.9559C52.5225 89.4587 53.6858 90 54.5 90C55.3142 90 56.4773 89.4587 57.2915 88.9559C79.1585 75.0343 93 58.8312 93 42.3572C93 28.6678 83.5784 19 71.0164 19C63.8051 19 57.9895 22.4031 54.5 27.6235C51.0105 22.4417 45.156 19 37.9834 19C25.4216 19 16 28.6678 16 42.3572ZM22.2423 42.3572C22.2423 32.0709 28.9109 25.226 37.9058 25.226C45.1949 25.226 49.3434 29.7505 51.8635 33.6177C52.9103 35.1645 53.5695 35.5899 54.5 35.5899C55.4305 35.5899 56.0121 35.1258 57.1364 33.6177C59.7729 29.8279 63.8438 25.226 71.094 25.226C80.089 25.226 86.7577 32.0709 86.7577 42.3572C86.7577 56.743 71.5205 72.25 55.2753 83.0005C54.8876 83.2713 54.655 83.4647 54.5 83.4647C54.3448 83.4647 54.0735 83.2713 53.6858 83.0005C37.4793 72.25 22.2423 56.743 22.2423 42.3572Z" fill="#6A6A6A"/>
</svg>
