<svg width="77" height="71" viewBox="0 0 77 71" fill="none" xmlns="http://www.w3.org/2000/svg">
<path d="M0 23.3572C0 39.8312 13.8414 56.0343 35.6696 69.9559C36.5225 70.4586 37.6858 71 38.5 71C39.3142 71 40.4773 70.4586 41.2915 69.9559C63.1585 56.0343 77 39.8312 77 23.3572C77 9.66781 67.5784 0 55.0164 0C47.8051 0 41.9895 3.40306 38.5 8.62355C35.0105 3.44166 29.156 0 21.9834 0C9.42157 0 0 9.66781 0 23.3572ZM6.24228 23.3572C6.24228 13.0709 12.9109 6.22598 21.9058 6.22598C29.1949 6.22598 33.3434 10.7505 35.8635 14.6177C36.9103 16.1645 37.5695 16.5899 38.5 16.5899C39.4305 16.5899 40.0121 16.1258 41.1364 14.6177C43.7729 10.8279 47.8438 6.22598 55.094 6.22598C64.089 6.22598 70.7577 13.0709 70.7577 23.3572C70.7577 37.743 55.5205 53.25 39.2753 64.0005C38.8876 64.2713 38.655 64.4647 38.5 64.4647C38.3448 64.4647 38.0735 64.2713 37.6858 64.0005C21.4793 53.25 6.24228 37.743 6.24228 23.3572Z" fill="#D84213"/>
</svg>
