<svg width="96" height="96" viewBox="0 0 96 96" fill="none" xmlns="http://www.w3.org/2000/svg">
<path d="M47.7002 89.1C26.7752 89.1 4.2002 75.975 4.2002 47.175C4.2002 18.375 26.7752 5.25 47.7002 5.25C59.3252 5.25 70.0502 9.075 78.0002 16.05C86.6252 23.7 91.2002 34.5 91.2002 47.175C91.2002 59.85 86.6252 70.575 78.0002 78.225C70.0502 85.2 59.2502 89.1 47.7002 89.1Z" fill="url(#paint0_radial_196_193)"/>
<path d="M83.6174 22.2524C87.6149 28.7024 89.6999 36.3824 89.6999 44.9249C89.6999 57.5999 85.1249 68.3249 76.4999 75.9749C68.5499 82.9499 57.7499 86.8499 46.1999 86.8499C32.6549 86.8499 18.4499 81.3374 10.0649 69.6449C18.1349 82.8899 33.3149 89.0999 47.6999 89.0999C59.2499 89.0999 70.0499 85.1999 77.9999 78.2249C86.6249 70.5749 91.1999 59.8499 91.1999 47.1749C91.1999 37.6199 88.5974 29.1299 83.6174 22.2524Z" fill="#EB8F00"/>
<path d="M58.2 69.3C58.2 74.6025 53.9025 78.9 48.6 78.9C43.2975 78.9 39 74.6025 39 69.3C39 63.9975 43.2975 59.7 48.6 59.7C53.8875 59.685 58.185 63.9525 58.2 69.24V69.3Z" fill="#422B0D"/>
<path d="M32.0024 35.2051C28.8599 35.2051 26.0024 37.8601 26.0024 42.2701C26.0024 46.6801 28.8599 49.3276 32.0024 49.3276C35.1449 49.3276 38.0024 46.6726 38.0024 42.2701C38.0024 37.8676 35.1449 35.2051 32.0024 35.2051Z" fill="#422B0D"/>
<path d="M31.7098 38.1526C30.6448 37.6426 29.3623 38.0926 28.8448 39.1576C28.4473 39.9901 28.6273 40.9876 29.2948 41.6326C30.3598 42.1426 31.6423 41.6926 32.1598 40.6276C32.5573 39.7951 32.3773 38.7976 31.7098 38.1526Z" fill="#896024"/>
<path d="M64.5 35.2051C61.3575 35.2051 58.5 37.8601 58.5 42.2701C58.5 46.6801 61.3575 49.3276 64.5 49.3276C67.6425 49.3276 70.5 46.6726 70.5 42.2701C70.5 37.8676 67.6575 35.2051 64.5 35.2051Z" fill="#422B0D"/>
<path d="M64.2225 38.1526C63.1575 37.6426 61.875 38.0926 61.3575 39.1576C60.96 39.9901 61.14 40.9876 61.8075 41.6326C62.8725 42.1426 64.155 41.6926 64.6725 40.6276C65.07 39.7951 64.89 38.7976 64.2225 38.1526Z" fill="#896024"/>
<path d="M21.5252 28.5C21.0002 29.0475 20.1227 29.07 19.5752 28.5375C19.0802 28.065 19.0127 27.2925 19.4102 26.7375C20.2577 25.515 21.3002 24.45 22.5002 23.5725C25.6427 21.15 29.5802 20.0025 33.5327 20.3625C35.4002 20.595 35.0327 22.98 33.3752 23.1375C28.9202 23.49 24.7277 25.3875 21.5252 28.5Z" fill="#422B0D"/>
<path d="M74.8278 28.6725C75.3528 29.22 76.2303 29.2425 76.7778 28.71C77.2728 28.2375 77.3403 27.465 76.9428 26.91C76.1103 25.7025 75.0753 24.645 73.8903 23.7825C70.7478 21.36 66.8103 20.2125 62.8578 20.58C60.9978 20.8125 61.3578 23.19 63.0153 23.3475C67.4553 23.7 71.6253 25.5825 74.8278 28.6725Z" fill="#422B0D"/>
<defs>
<radialGradient id="paint0_radial_196_193" cx="0" cy="0" r="1" gradientUnits="userSpaceOnUse" gradientTransform="translate(47.7002 47.175) scale(42.7198 42.7198)">
<stop offset="0.5" stop-color="#FDE030"/>
<stop offset="0.92" stop-color="#F7C02B"/>
<stop offset="1" stop-color="#F4A223"/>
</radialGradient>
</defs>
</svg>
