<svg width="96" height="96" viewBox="0 0 96 96" fill="none" xmlns="http://www.w3.org/2000/svg">
<path d="M47.7002 89.1C26.7752 89.1 4.2002 75.975 4.2002 47.175C4.2002 18.375 26.7752 5.25 47.7002 5.25C59.3252 5.25 70.0502 9.075 78.0002 16.05C86.6252 23.7 91.2002 34.5 91.2002 47.175C91.2002 59.85 86.6252 70.575 78.0002 78.225C70.0502 85.2 59.2502 89.1 47.7002 89.1Z" fill="url(#paint0_radial_196_171)"/>
<path d="M83.6174 22.2524C87.6149 28.7024 89.6999 36.3824 89.6999 44.9249C89.6999 57.5999 85.1249 68.3249 76.4999 75.9749C68.5499 82.9499 57.7499 86.8499 46.1999 86.8499C32.6549 86.8499 18.4199 81.3374 10.0649 69.6449C18.1349 82.8899 33.3074 89.0999 47.6999 89.0999C59.2499 89.0999 70.0499 85.1999 77.9999 78.2249C86.6249 70.5749 91.1999 59.8499 91.1999 47.1749C91.1999 37.6199 88.5974 29.1299 83.6174 22.2524Z" fill="#EB8F00"/>
<path d="M47.7002 89.1C26.7752 89.1 4.2002 75.975 4.2002 47.175C4.2002 18.375 26.7752 5.25 47.7002 5.25C59.3252 5.25 70.0502 9.075 78.0002 16.05C86.6252 23.7 91.2002 34.5 91.2002 47.175C91.2002 59.85 86.6252 70.575 78.0002 78.225C70.0502 85.2 59.2502 89.1 47.7002 89.1Z" fill="url(#paint1_radial_196_171)"/>
<path d="M67.3048 59.325C61.8148 57.5625 55.1473 56.625 47.9998 56.625C40.7398 56.625 34.0273 57.6525 28.4473 59.4375C26.3323 62.94 25.0498 66.9975 25.0498 71.325C25.0498 75 28.7248 77.175 31.9498 75.675C35.9998 73.8 41.9248 71.925 47.9998 71.925C54.0748 71.925 60.0748 73.8 64.0498 75.675C67.2748 77.175 70.9498 75 70.9498 71.325C70.9498 66.9525 69.5473 62.85 67.3048 59.325Z" fill="#422B0D"/>
<path d="M67.3048 59.3249C62.7748 52.1999 54.8173 50.3999 47.9998 50.3999C40.5898 50.3999 32.7748 52.2524 28.4473 59.4374C34.0273 57.6524 40.7398 56.6249 47.9998 56.6249C55.1398 56.6249 61.8148 57.5624 67.3048 59.3249Z" fill="white"/>
<path d="M47.9551 49.2749C50.5801 49.3424 53.2276 49.5824 55.8001 50.2499C58.3801 50.8799 60.8851 51.9599 63.0826 53.5049C65.2576 55.0874 67.0876 57.1424 68.3401 59.4824C69.6151 61.7849 70.5451 64.2824 71.0101 66.8699C71.2501 68.1599 71.3776 69.4724 71.3776 70.7849C71.4001 71.4149 71.3401 72.1574 71.1526 72.8249C70.9576 73.4999 70.6126 74.1224 70.1701 74.6624C69.2851 75.7499 67.9351 76.3949 66.5626 76.4924C65.8801 76.5299 65.1901 76.4399 64.5451 76.2299C63.8926 75.9899 63.3451 75.6974 62.7601 75.4424C58.1101 73.3874 53.0776 72.0524 47.9551 71.9324C53.0851 71.8649 58.2001 73.0124 62.9851 74.9249C63.5851 75.1574 64.1851 75.4499 64.7401 75.6299C65.3176 75.7949 65.9251 75.8474 66.5101 75.7949C67.6876 75.6674 68.8126 75.0674 69.5176 74.1374C69.8701 73.6724 70.1401 73.1474 70.2751 72.5849C70.4101 72.0074 70.4401 71.4599 70.4026 70.8149C70.3501 69.5624 70.1851 68.3174 69.9151 67.1024C69.3826 64.6649 68.4151 62.3249 67.1326 60.1949C65.8726 58.0574 64.1476 56.2724 62.1301 54.9074C60.0826 53.5799 57.7726 52.6724 55.3576 52.1774C52.9501 51.6524 50.4526 51.5099 47.9551 51.5399V49.2749Z" fill="#EB8F00"/>
<path d="M48.1423 51.525C45.6523 51.495 43.1473 51.6375 40.7398 52.1625C38.3248 52.6575 36.0148 53.565 33.9673 54.8925C31.9498 56.2575 30.2248 58.0425 28.9648 60.18C27.6748 62.31 26.7148 64.6425 26.1823 67.0875C25.9123 68.31 25.7398 69.5475 25.6948 70.8C25.6498 71.445 25.6873 71.9925 25.8223 72.57C25.9648 73.1325 26.2348 73.6575 26.5798 74.1225C27.2848 75.0525 28.4098 75.6525 29.5873 75.78C30.1798 75.8325 30.7798 75.78 31.3573 75.615C31.9123 75.435 32.5123 75.15 33.1123 74.91C37.8898 72.9975 43.0123 71.85 48.1423 71.9175C43.0123 72.0375 37.9798 73.3725 33.3373 75.4275C32.7523 75.6825 32.2048 75.975 31.5523 76.215C30.9073 76.425 30.2173 76.515 29.5348 76.4775C28.1698 76.3875 26.8198 75.735 25.9273 74.6475C25.4848 74.1075 25.1398 73.485 24.9448 72.81C24.7573 72.15 24.6973 71.4075 24.7198 70.77C24.7273 69.4575 24.8548 68.1525 25.0873 66.855C25.5598 64.2675 26.4823 61.77 27.7573 59.4675C29.0173 57.135 30.8473 55.0725 33.0148 53.49C35.2123 51.945 37.7173 50.8575 40.2973 50.235C42.8773 49.575 45.5248 49.3275 48.1423 49.26V51.525Z" fill="#EB8F00"/>
<path d="M83.6174 22.2524C87.6149 28.7024 89.6999 36.3824 89.6999 44.9249C89.6999 57.5999 85.1249 68.3249 76.4999 75.9749C68.5499 82.9499 57.7499 86.8499 46.1999 86.8499C32.6549 86.8499 18.4199 81.3374 10.0649 69.6449C18.1349 82.8899 33.3074 89.0999 47.6999 89.0999C59.2499 89.0999 70.0499 85.1999 77.9999 78.2249C86.6249 70.5749 91.1999 59.8499 91.1999 47.1749C91.1999 37.6199 88.5974 29.1299 83.6174 22.2524Z" fill="#EB8F00"/>
<path d="M16.6424 34.4325C16.2524 34.5 15.8474 34.44 15.5024 34.275C14.8199 33.945 14.3024 33.1425 14.6924 32.0925C16.1249 28.3875 19.0874 25.2825 22.8224 23.5575C24.2099 22.9125 25.6649 22.485 27.1574 22.2825C28.2749 22.155 28.9274 22.8375 29.0849 23.565C29.2574 24.375 28.8899 25.365 27.8399 25.71L27.7499 25.74C23.7074 27.135 20.0999 29.9925 17.8649 33.57C17.5574 34.08 17.1074 34.35 16.6424 34.4325Z" fill="#422B0D"/>
<path d="M77.6476 33.5699C75.4126 29.9924 71.8051 27.1349 67.7626 25.7399L67.6726 25.7099C66.6226 25.3724 66.2476 24.3749 66.4276 23.5649C66.5851 22.8299 67.2451 22.1549 68.3551 22.2824C69.8401 22.4774 71.3026 22.9124 72.6901 23.5574C76.4251 25.2824 79.3876 28.3874 80.8201 32.0924C81.2101 33.1424 80.6926 33.9449 80.0101 34.2749C79.6726 34.4399 79.2676 34.4999 78.8701 34.4324C78.4051 34.3499 77.9551 34.0799 77.6476 33.5699Z" fill="#422B0D"/>
<path d="M83.8049 83.2501C83.8049 80.9476 79.6424 79.0351 74.4149 78.9151L72.8024 39.5026C72.6449 39.3826 72.4874 39.2401 72.3599 39.0826C72.3599 39.0826 72.3149 39.0226 72.2249 38.9176C72.1799 38.8651 72.1274 38.7976 72.0674 38.7151C71.9999 38.6326 71.9324 38.5426 71.8724 38.4976C71.7449 38.3701 71.5874 38.2126 71.4074 38.0326C71.2199 37.8451 70.9949 37.6426 70.7624 37.4401C70.2824 37.0351 69.7124 36.6601 69.1124 36.3976C68.5124 36.1501 67.9049 36.0001 67.2824 36.0076H67.1849L66.9674 36.0151C66.7724 36.0151 66.8099 36.0301 66.7499 36.0376C66.6974 36.0301 66.4874 36.0826 66.3449 36.1051C66.0449 36.1801 65.7299 36.2701 65.4299 36.3976C64.8299 36.6601 61.6124 36.8026 61.4024 36.9301L61.0574 82.8676C57.6599 83.8951 53.9399 85.6201 53.9399 87.5476C53.9399 90.6901 59.8124 93.2476 67.0574 93.2476C74.3024 93.2476 80.1749 90.7051 80.1749 87.5626C80.1749 87.2476 80.0999 86.9476 79.9874 86.6476C82.3124 85.8526 83.8049 84.6301 83.8049 83.2501Z" fill="#29B6F6"/>
<path d="M64.7849 80.1525C64.8524 82.59 63.3824 84.795 61.1174 85.7025C58.3649 86.805 55.7399 88.3575 59.6699 89.2875C59.6699 89.2875 62.6324 90.7425 64.1399 89.985C64.8149 89.6475 64.5824 89.0925 64.1174 88.59C63.6074 88.0425 63.8624 87.1575 64.5899 86.9925L65.2349 86.85C66.8699 86.49 68.0174 85.0125 67.9724 83.34L66.7649 34.1175L64.2974 33.915L64.7849 80.1525Z" fill="#81D4FA"/>
<path d="M35.1599 82.8675L34.8224 37.02C34.4549 36.855 33.8249 39.0225 33.7349 38.91C33.6899 38.8575 33.6374 38.79 33.5774 38.7075C33.5099 38.625 33.4424 38.535 33.3824 38.49C33.2549 38.3625 33.0974 38.205 32.9174 38.025C32.7299 37.8375 32.5049 37.635 32.2724 37.4325C31.7924 37.0275 31.2224 36.6525 30.6224 36.39C30.0224 36.1425 29.4149 35.9925 28.7924 36H28.6949L28.4774 36.0075C28.2824 36.0075 28.3199 36.0225 28.2599 36.03C28.2074 36.0225 27.9974 36.075 27.8549 36.0975C27.5549 36.1725 27.2399 36.2625 26.9399 36.39C26.3399 36.6525 25.7699 37.0275 25.2899 37.4325C24.8174 37.8375 24.4199 38.235 24.1499 38.535C23.8799 38.8425 23.7224 39.015 23.7224 39.015L23.4974 39.27C23.4749 39.2925 23.4524 39.3075 23.4299 39.33L21.8099 78.9075C16.5749 79.0275 12.4199 80.925 12.4199 83.2275C12.4199 84.6075 13.9124 85.845 16.2299 86.6325C16.1174 86.9325 16.0424 87.24 16.0424 87.555C16.0424 90.6975 21.9149 93.2475 29.1599 93.2475C36.4049 93.2475 42.2774 90.6825 42.2774 87.54C42.2774 85.6125 38.5499 83.895 35.1599 82.8675Z" fill="#29B6F6"/>
<path d="M26.4377 36.8551L25.1252 78.3001C25.0877 79.5076 24.0752 80.4526 22.8752 80.4001C21.3152 80.3326 19.1777 80.5126 17.4227 81.6001C16.4777 82.1851 16.0877 83.6776 16.9502 84.5101C17.8952 85.4176 20.3702 84.6301 21.6077 84.5026C22.1477 84.4501 22.8602 84.5026 23.0027 85.0276C23.0852 85.3276 22.9052 85.6501 22.6577 85.8301C22.4102 86.0176 22.1027 86.0926 21.8027 86.1826C21.3077 86.3251 20.8127 86.4976 20.4227 86.8351C20.0402 87.1726 19.7927 87.7126 19.9277 88.2076C20.1077 88.8451 20.8127 89.1526 21.4352 89.3701C22.5302 89.7676 23.6477 90.1651 24.8102 90.2176C24.8777 89.3926 23.5952 88.8226 23.8502 88.0351C23.9402 87.7576 24.2027 87.5776 24.4652 87.4501C25.1702 87.1201 25.9727 87.0526 26.7302 86.8726C27.9752 86.5801 30.2252 85.9501 29.6402 84.2401C29.4452 83.6776 29.0477 83.2201 28.7102 82.7251C27.4427 80.8501 27.1952 79.2001 27.4202 76.9501C27.6002 75.1951 28.0502 47.4226 28.3502 36.0001C28.4252 33.2626 27.5327 35.7826 26.6402 35.8501C26.5652 35.9476 26.5127 36.7651 26.4377 36.8551Z" fill="#81D4FA"/>
<path d="M36.4502 40.8226L36.3002 40.6726C36.2252 40.5976 36.0002 40.3726 35.9252 40.2976C35.7752 40.1476 35.6252 40.0726 35.4002 39.8476C35.1752 39.6976 34.9502 39.4726 34.6502 39.3226C34.3502 39.1726 34.0502 38.9476 33.7502 38.7976C33.4502 38.6476 33.0752 38.4976 32.7002 38.3476C32.3252 38.1976 31.9502 38.1226 31.5752 38.0476C31.2002 37.9726 30.8252 37.9726 30.3752 37.9726H30.2252H30.0002C29.7752 37.9726 29.7752 37.9726 29.7002 37.9726C29.5502 37.9726 29.3252 38.0476 29.1752 38.0476C28.8002 38.1226 28.4252 38.1976 28.0502 38.3476C27.6752 38.4976 27.3002 38.5726 27.0002 38.7976C26.7002 38.9476 26.4002 39.0976 26.1002 39.3226C25.5752 39.6976 25.1252 40.0726 24.8252 40.2976C24.5252 40.5976 24.3752 40.7476 24.3752 40.7476L24.2252 40.8976C23.3252 41.7976 21.8252 41.7976 20.7752 41.0476C20.0252 40.4476 19.8002 39.3976 20.1752 38.6476L20.2502 38.4226C20.3252 38.2726 20.4002 38.0476 20.5502 37.8226C20.8502 37.2976 21.3752 36.5476 22.2002 35.7226C22.5752 35.3476 23.1002 34.8976 23.6252 34.5226C24.1502 34.1476 24.8252 33.7726 25.5002 33.4726C26.1752 33.1726 27.0002 32.8726 27.7502 32.7226C28.1252 32.6476 28.5752 32.5726 29.0252 32.4976C29.2502 32.4976 29.5502 32.4226 29.6252 32.4226H30.2252C31.0502 32.4226 31.8752 32.4976 32.7002 32.6476C33.5252 32.7976 34.2752 33.0976 34.9502 33.3976C35.6252 33.6976 36.3002 34.0726 36.8252 34.4476C37.4252 34.8226 37.8752 35.1976 38.2502 35.6476C38.6252 36.0226 39.0002 36.3976 39.2252 36.7726C39.3752 36.9226 39.4502 37.1476 39.6002 37.2976C39.6752 37.4476 39.8252 37.5976 39.9002 37.7476C40.1252 38.0476 40.1252 38.1976 40.2002 38.3476C40.2752 38.4976 40.2752 38.4976 40.2752 38.4976C40.8002 39.6226 40.2002 40.8976 38.9252 41.3476C38.2502 41.7226 37.1252 41.4976 36.4502 40.8226Z" fill="#422B0D"/>
<path d="M71.6325 40.5525C71.6325 40.5525 71.58 40.5 71.4825 40.4025C71.4 40.32 71.2125 40.11 71.1 40.0275C70.9575 39.9075 70.785 39.765 70.5825 39.6C70.365 39.435 70.1175 39.255 69.8475 39.0675C69.57 38.895 69.27 38.715 68.9475 38.5575C68.6325 38.385 68.2725 38.265 67.9125 38.13C67.5525 38.0025 67.17 37.935 66.7875 37.8525C66.405 37.7925 66.0075 37.7625 65.61 37.7625H65.715H65.7075H65.6925H65.6625H65.6025H65.4825L65.25 37.77C65.055 37.77 65.025 37.785 64.95 37.7925C64.83 37.7925 64.6125 37.83 64.425 37.86C64.0425 37.9425 63.66 38.01 63.3 38.1375C62.9475 38.2725 62.5875 38.3925 62.2725 38.565C61.95 38.73 61.65 38.9025 61.3725 39.075C60.8325 39.435 60.39 39.795 60.0975 40.065C59.7975 40.335 59.625 40.5 59.625 40.5L59.4375 40.6875C58.53 41.565 57 41.6175 56.01 40.815C55.23 40.1775 55.035 39.195 55.425 38.3775C55.425 38.3775 55.4625 38.3025 55.5375 38.1525C55.6125 38.01 55.7025 37.785 55.8675 37.5225C56.175 36.99 56.685 36.24 57.495 35.4525C57.9 35.0625 58.3725 34.65 58.935 34.275C59.4825 33.885 60.12 33.5325 60.825 33.225C61.53 32.925 62.295 32.6625 63.105 32.4975C63.5175 32.4225 63.9 32.3475 64.4025 32.3025C64.635 32.28 64.9125 32.2575 65.0325 32.25L65.61 32.2275C66.4575 32.2425 67.2975 32.3325 68.115 32.49C68.925 32.655 69.69 32.9175 70.395 33.2175C71.0925 33.525 71.7375 33.8775 72.285 34.2675C72.8475 34.6425 73.3125 35.0475 73.7175 35.445C74.1225 35.835 74.445 36.225 74.715 36.5775C74.8425 36.7575 74.9625 36.9225 75.075 37.08C75.18 37.2525 75.285 37.41 75.3675 37.5525C75.57 37.8675 75.585 37.9875 75.66 38.13C75.7125 38.25 75.7425 38.3175 75.7425 38.3175C76.245 39.435 75.6375 40.7025 74.385 41.1525C73.4025 41.505 72.3 41.235 71.6325 40.5525Z" fill="#422B0D"/>
<defs>
<radialGradient id="paint0_radial_196_171" cx="0" cy="0" r="1" gradientUnits="userSpaceOnUse" gradientTransform="translate(47.7002 47.1749) scale(42.7198 42.7198)">
<stop offset="0.5" stop-color="#FDE030"/>
<stop offset="0.9188" stop-color="#F7C02B"/>
<stop offset="1" stop-color="#F4A223"/>
</radialGradient>
<radialGradient id="paint1_radial_196_171" cx="0" cy="0" r="1" gradientUnits="userSpaceOnUse" gradientTransform="translate(47.7002 47.1749) scale(42.7198 42.7198)">
<stop offset="0.5" stop-color="#FDE030"/>
<stop offset="0.9188" stop-color="#F7C02B"/>
<stop offset="1" stop-color="#F4A223"/>
</radialGradient>
</defs>
</svg>
