<svg width="102" height="81" viewBox="0 0 102 81" fill="none" xmlns="http://www.w3.org/2000/svg">
<path d="M17 23.625C17 22.7299 17.4478 21.8715 18.2448 21.2385C19.0418 20.6056 20.1228 20.25 21.25 20.25H80.75C81.8772 20.25 82.9582 20.6056 83.7552 21.2385C84.5522 21.8715 85 22.7299 85 23.625C85 24.5201 84.5522 25.3785 83.7552 26.0115C82.9582 26.6444 81.8772 27 80.75 27H21.25C20.1228 27 19.0418 26.6444 18.2448 26.0115C17.4478 25.3785 17 24.5201 17 23.625ZM17 40.5C17 39.6049 17.4478 38.7465 18.2448 38.1135C19.0418 37.4806 20.1228 37.125 21.25 37.125H80.75C81.8772 37.125 82.9582 37.4806 83.7552 38.1135C84.5522 38.7465 85 39.6049 85 40.5C85 41.3951 84.5522 42.2535 83.7552 42.8865C82.9582 43.5194 81.8772 43.875 80.75 43.875H21.25C20.1228 43.875 19.0418 43.5194 18.2448 42.8865C17.4478 42.2535 17 41.3951 17 40.5ZM17 57.375C17 56.4799 17.4478 55.6214 18.2448 54.9885C19.0418 54.3556 20.1228 54 21.25 54H80.75C81.8772 54 82.9582 54.3556 83.7552 54.9885C84.5522 55.6214 85 56.4799 85 57.375C85 58.2701 84.5522 59.1286 83.7552 59.7615C82.9582 60.3944 81.8772 60.75 80.75 60.75H21.25C20.1228 60.75 19.0418 60.3944 18.2448 59.7615C17.4478 59.1286 17 58.2701 17 57.375Z" fill="#0D0D0D"/>
</svg>
