<svg width="91" height="91" viewBox="0 0 91 91" fill="none" xmlns="http://www.w3.org/2000/svg">
<path d="M77.1223 35.3382L24.039 8.79658C21.9441 7.75391 19.5786 7.38271 17.2649 7.7336C14.9513 8.08448 12.8022 9.14037 11.1107 10.7573C9.41911 12.3743 8.26739 14.4735 7.81254 16.769C7.35769 19.0644 7.62185 21.4443 8.56901 23.5841L17.669 43.9453C17.8755 44.4376 17.9818 44.9661 17.9818 45.4999C17.9818 46.0337 17.8755 46.5622 17.669 47.0545L8.56901 67.4158C7.79816 69.1475 7.47229 71.0443 7.621 72.934C7.76972 74.8237 8.3883 76.6462 9.42055 78.2361C10.4528 79.8259 11.866 81.1325 13.5316 82.0372C15.1973 82.942 17.0627 83.4161 18.9582 83.4166C20.7335 83.3989 22.4825 82.9843 24.0769 82.2032L77.1603 55.6616C79.0432 54.7144 80.6259 53.2626 81.7318 51.4683C82.8378 49.674 83.4234 47.6077 83.4234 45.4999C83.4234 43.3922 82.8378 41.3259 81.7318 39.5315C80.6259 37.7372 79.0432 36.2855 77.1603 35.3382H77.1223ZM73.7478 48.8745L20.6644 75.4162C19.9674 75.7509 19.1847 75.8644 18.4212 75.7417C17.6578 75.6189 16.9501 75.2657 16.3932 74.7293C15.8362 74.193 15.4565 73.4991 15.305 72.7409C15.1535 71.9826 15.2375 71.1962 15.5457 70.487L24.6078 50.1258C24.7251 49.8539 24.8264 49.5753 24.9111 49.2916H51.0357C52.0413 49.2916 53.0057 48.8921 53.7168 48.181C54.4279 47.47 54.8273 46.5055 54.8273 45.4999C54.8273 44.4943 54.4279 43.5299 53.7168 42.8188C53.0057 42.1077 52.0413 41.7083 51.0357 41.7083H24.9111C24.8264 41.4245 24.7251 41.146 24.6078 40.8741L15.5457 20.5128C15.2375 19.8037 15.1535 19.0172 15.305 18.2589C15.4565 17.5007 15.8362 16.8069 16.3932 16.2705C16.9501 15.7342 17.6578 15.3809 18.4212 15.2582C19.1847 15.1354 19.9674 15.249 20.6644 15.5837L73.7478 42.1253C74.3688 42.4435 74.8901 42.9269 75.254 43.5224C75.618 44.1178 75.8106 44.8021 75.8106 45.4999C75.8106 46.1978 75.618 46.8821 75.254 47.4775C74.8901 48.0729 74.3688 48.5563 73.7478 48.8745Z" fill="#6A6A6A"/>
</svg>
