<svg width="96" height="96" viewBox="0 0 96 96" fill="none" xmlns="http://www.w3.org/2000/svg">
<path d="M47.7002 89.1C26.7752 89.1 4.2002 75.975 4.2002 47.175C4.2002 18.375 26.7752 5.25 47.7002 5.25C59.3252 5.25 70.0502 9.075 78.0002 16.05C86.6252 23.7 91.2002 34.5 91.2002 47.175C91.2002 59.85 86.6252 70.575 78.0002 78.225C70.0502 85.2 59.2502 89.1 47.7002 89.1Z" fill="url(#paint0_radial_196_149)"/>
<path d="M83.6174 22.2524C87.6149 28.7024 89.6999 36.3824 89.6999 44.9249C89.6999 57.5999 85.1249 68.3249 76.4999 75.9749C68.5499 82.9499 57.7499 86.8499 46.1999 86.8499C32.6549 86.8499 18.4499 81.3374 10.0649 69.6449C18.1349 82.8899 33.3149 89.0999 47.6999 89.0999C59.2499 89.0999 70.0499 85.1999 77.9999 78.2249C86.6249 70.5749 91.1999 59.8499 91.1999 47.1749C91.1999 37.6199 88.5974 29.1299 83.6174 22.2524Z" fill="#EB8F00"/>
<path d="M66.75 66H29.25C27.5925 66 26.25 64.6575 26.25 63C26.25 61.3425 27.5925 60 29.25 60H66.75C68.4075 60 69.75 61.3425 69.75 63C69.75 64.6575 68.4075 66 66.75 66Z" fill="#422B0D"/>
<path d="M33.5024 34.4551C30.3599 34.4551 27.5024 37.1101 27.5024 41.5201C27.5024 45.9301 30.3599 48.5776 33.5024 48.5776C36.6449 48.5776 39.5024 45.9226 39.5024 41.5201C39.5024 37.1176 36.6449 34.4551 33.5024 34.4551Z" fill="#422B0D"/>
<path d="M33.2098 37.4026C32.1448 36.8926 30.8623 37.3426 30.3448 38.4076C29.9473 39.2401 30.1273 40.2376 30.7948 40.8826C31.8598 41.3926 33.1423 40.9426 33.6598 39.8776C34.0573 39.0451 33.8773 38.0476 33.2098 37.4026Z" fill="#896024"/>
<path d="M62.25 34.4551C59.1075 34.4551 56.25 37.1101 56.25 41.5201C56.25 45.9301 59.1075 48.5776 62.25 48.5776C65.3925 48.5776 68.25 45.9226 68.25 41.5201C68.25 37.1176 65.4075 34.4551 62.25 34.4551Z" fill="#422B0D"/>
<path d="M61.9725 37.4026C60.9075 36.8926 59.625 37.3426 59.1075 38.4076C58.71 39.2401 58.89 40.2376 59.5575 40.8826C60.6225 41.3926 61.905 40.9426 62.4225 39.8776C62.82 39.0451 62.64 38.0476 61.9725 37.4026Z" fill="#896024"/>
<defs>
<radialGradient id="paint0_radial_196_149" cx="0" cy="0" r="1" gradientUnits="userSpaceOnUse" gradientTransform="translate(47.7002 47.1749) scale(42.7198 42.7198)">
<stop offset="0.5" stop-color="#FDE030"/>
<stop offset="0.92" stop-color="#F7C02B"/>
<stop offset="1" stop-color="#F4A223"/>
</radialGradient>
</defs>
</svg>
