<svg width="96" height="96" viewBox="0 0 96 96" fill="none" xmlns="http://www.w3.org/2000/svg">
<path d="M47.7002 89.1C26.7752 89.1 4.2002 75.975 4.2002 47.175C4.2002 18.375 26.7752 5.25 47.7002 5.25C59.3252 5.25 70.0502 9.075 78.0002 16.05C86.6252 23.7 91.2002 34.5 91.2002 47.175C91.2002 59.85 86.6252 70.575 78.0002 78.225C70.0502 85.2 59.2502 89.1 47.7002 89.1Z" fill="url(#paint0_radial_196_204)"/>
<path d="M83.6174 22.2524C87.6149 28.7024 89.6999 36.3824 89.6999 44.9249C89.6999 57.5999 85.1249 68.3249 76.4999 75.9749C68.5499 82.9499 57.7499 86.8499 46.1999 86.8499C32.6549 86.8499 18.4499 81.3374 10.0649 69.6449C18.1349 82.8899 33.3149 89.0999 47.6999 89.0999C59.2499 89.0999 70.0499 85.1999 77.9999 78.2249C86.6249 70.5749 91.1999 59.8499 91.1999 47.1749C91.1999 37.6199 88.5974 29.1299 83.6174 22.2524Z" fill="#D84213"/>
<path d="M62.9553 77.355C62.7003 77.2575 62.4678 77.1 62.2878 76.89C54.9903 69.3075 42.9228 69.075 35.3403 76.3725C35.1678 76.545 34.9878 76.7175 34.8228 76.89C34.6428 77.1 34.4103 77.2575 34.1553 77.355C33.5928 77.565 32.9553 77.445 32.5053 77.0475C32.0628 76.6575 31.9128 76.035 32.1378 75.4875C34.3728 69.75 41.0178 65.25 48.5553 65.25C56.0928 65.25 62.7378 69.75 64.9728 75.48C65.1978 76.0275 65.0478 76.65 64.6053 77.04C64.1553 77.4375 63.5178 77.5575 62.9553 77.355Z" fill="#422B0D"/>
<path d="M43.6051 51.615C41.9251 49.5 35.0026 45.435 32.5051 44.25C31.5751 43.8225 30.6076 43.4775 29.6176 43.2225C29.4376 43.17 29.2426 43.1475 29.0551 43.1475C28.0576 43.17 27.2026 43.8825 27.0001 44.865C26.7676 45.885 27.2926 46.935 28.2526 47.355C29.4301 47.9325 31.4851 49.0275 33.6151 50.235C31.8376 51.2925 30.7501 53.2125 30.7501 55.2825V56.3775C30.7501 59.4825 33.2701 62.0025 36.3751 62.0025C39.4801 62.0025 42.0001 59.4825 42.0001 56.3775V55.2825C42.0001 55.2375 42.0001 55.2 42.0001 55.155C42.8026 55.1025 43.5226 54.6225 43.8751 53.9025C44.2426 53.1525 44.1376 52.26 43.6051 51.615Z" fill="#422B0D"/>
<path d="M70.1403 44.8649C69.9303 43.8749 69.0603 43.1699 68.0478 43.1624C67.8603 43.1624 67.6653 43.1849 67.4853 43.2374C66.4953 43.4849 65.5278 43.8299 64.5978 44.2499C62.1003 45.4199 55.1778 49.4999 53.4978 51.5999C52.9653 52.2524 52.8753 53.1524 53.2503 53.9024C53.6103 54.6299 54.3228 55.1024 55.1328 55.1549V55.2824V56.3774C55.1328 59.4824 57.6528 62.0024 60.7578 62.0024C63.8628 62.0024 66.3828 59.4824 66.3828 56.3774V55.2824C66.3828 53.2199 65.2953 51.3074 63.5253 50.2499C65.6553 49.0424 67.7103 47.9474 68.8878 47.3699C69.8553 46.9499 70.3878 45.8924 70.1403 44.8649Z" fill="#422B0D"/>
<path d="M36.0901 51.3374C35.0251 50.8274 33.7426 51.2774 33.2251 52.3424C32.8276 53.1749 33.0076 54.1724 33.6751 54.8174C34.7401 55.3274 36.0226 54.8774 36.5401 53.8124C36.9376 52.9799 36.7576 51.9824 36.0901 51.3374Z" fill="#896024"/>
<path d="M60.4725 51.3374C59.4075 50.8274 58.125 51.2774 57.6075 52.3424C57.21 53.1749 57.39 54.1724 58.0575 54.8174C59.1225 55.3274 60.405 54.8774 60.9225 53.8124C61.32 52.9799 61.14 51.9824 60.4725 51.3374Z" fill="#896024"/>
<defs>
<radialGradient id="paint0_radial_196_204" cx="0" cy="0" r="1" gradientUnits="userSpaceOnUse" gradientTransform="translate(47.7002 47.1749) scale(42.7198 42.7198)">
<stop offset="0.12" stop-color="#FAC742"/>
<stop offset="0.32" stop-color="#FAC440"/>
<stop offset="0.48" stop-color="#FBBA3B"/>
<stop offset="0.62" stop-color="#FBA931"/>
<stop offset="0.76" stop-color="#FC9224"/>
<stop offset="0.88" stop-color="#FE7413"/>
<stop offset="1" stop-color="#FF5100"/>
</radialGradient>
</defs>
</svg>
