<svg width="96" height="96" viewBox="0 0 96 96" fill="none" xmlns="http://www.w3.org/2000/svg">
<path d="M47.7002 89.1C26.7752 89.1 4.2002 75.975 4.2002 47.175C4.2002 18.375 26.7752 5.25 47.7002 5.25C59.3252 5.25 70.0502 9.075 78.0002 16.05C86.6252 23.7 91.2002 34.5 91.2002 47.175C91.2002 59.85 86.6252 70.575 78.0002 78.225C70.0502 85.2 59.2502 89.1 47.7002 89.1Z" fill="url(#paint0_radial_196_157)"/>
<path d="M83.6174 22.2524C87.6149 28.7024 89.6999 36.3824 89.6999 44.9249C89.6999 57.5999 85.1249 68.3249 76.4999 75.9749C68.5499 82.9499 57.7499 86.8499 46.1999 86.8499C32.6549 86.8499 18.4499 81.3374 10.0649 69.6449C18.1349 82.8899 33.3149 89.0999 47.6999 89.0999C59.2499 89.0999 70.0499 85.1999 77.9999 78.2249C86.6249 70.5749 91.1999 59.8499 91.1999 47.1749C91.1999 37.6199 88.5974 29.1299 83.6174 22.2524Z" fill="#EB8F00"/>
<path d="M48.3 62.475C45.615 62.475 42.9525 62.025 40.425 61.125C37.3125 60.0525 33.93 61.71 32.8575 64.815C32.25 66.57 32.4975 68.505 33.525 70.05C36.75 75 41.85 77.7 48.3 77.7C54.75 77.7 59.8499 75 63.0749 70.05C64.8974 67.3125 64.1474 63.615 61.4099 61.7925C59.8649 60.765 57.9299 60.5175 56.1749 61.125C53.6474 62.025 50.985 62.475 48.3 62.475Z" fill="#422B0D"/>
<path opacity="0.8" d="M25.6499 66.8999C32.8986 66.8999 38.7749 61.3594 38.7749 54.5249C38.7749 47.6904 32.8986 42.1499 25.6499 42.1499C18.4012 42.1499 12.5249 47.6904 12.5249 54.5249C12.5249 61.3594 18.4012 66.8999 25.6499 66.8999Z" fill="url(#paint1_radial_196_157)"/>
<path opacity="0.8" d="M70.9502 66.8999C78.1989 66.8999 84.0752 61.3594 84.0752 54.5249C84.0752 47.6904 78.1989 42.1499 70.9502 42.1499C63.7015 42.1499 57.8252 47.6904 57.8252 54.5249C57.8252 61.3594 63.7015 66.8999 70.9502 66.8999Z" fill="url(#paint2_radial_196_157)"/>
<path d="M80.6926 25.7776C74.5351 24.0451 70.0126 29.0776 70.0126 29.0776C70.0126 29.0776 69.4876 23.3701 64.2226 21.5776C57.9076 19.4101 51.2401 22.8601 50.8426 31.8076C50.3926 42.0001 63.8776 55.3801 63.8776 55.3801C63.8776 55.3801 80.6176 50.8801 86.1001 41.3401C90.5626 33.5776 85.3501 27.0826 80.6926 25.7776Z" fill="#F44336"/>
<path d="M80.6927 25.7774C79.9352 25.5749 79.1552 25.4849 78.3752 25.4999C80.5802 26.9774 82.3277 29.0399 83.4152 31.4549C84.4727 33.9974 84.7502 37.2824 82.7402 41.2049C78.3827 49.7324 64.9652 55.0124 63.9902 55.3799C65.2127 55.0349 80.8577 50.5349 86.1302 41.3624C90.5627 33.5774 85.3502 27.0824 80.6927 25.7774Z" fill="#C62828"/>
<path d="M70.0049 29.9999C69.9599 29.2199 69.8399 28.4399 69.6599 27.6749C69.2249 25.4699 67.8599 23.5574 65.9099 22.4249C64.5749 21.6449 63.0974 21.1499 61.5674 20.9624C61.5674 20.9624 63.8174 21.6449 65.4224 24.7574C66.2399 26.3924 66.7274 28.1774 66.8474 29.9999C66.8399 30.6674 66.9599 31.3199 67.1999 31.9424C67.4699 32.5649 68.1299 32.9324 68.8049 32.8274C69.8324 32.5649 70.0574 31.2824 70.0049 29.9999Z" fill="#C62828"/>
<path d="M55.425 26.4226C56.8275 24.6826 59.13 23.0251 61.335 24.5551C62.505 25.3726 62.52 27.6901 61.0875 28.7326C58.6725 30.5026 58.56 31.6651 58.29 32.6401C57.96 33.8026 57.75 35.1901 56.6925 35.7751C55.635 36.3601 54.705 35.7751 54.15 34.1026C53.205 31.4926 53.685 28.5826 55.425 26.4226Z" fill="#FF847A"/>
<path d="M30.5398 21.4276C24.4573 23.4001 23.4823 30.0976 23.4823 30.0976C23.4823 30.0976 19.8823 25.5976 14.4823 27.0526C8.03983 28.7476 4.40233 35.3176 8.99983 42.9751C14.3248 51.7501 32.9548 55.3876 32.9548 55.3876C32.9548 55.3876 44.3923 42.3676 43.6723 31.3876C43.0798 22.4476 35.1373 19.9351 30.5398 21.4276Z" fill="#F44336"/>
<path d="M30.5401 21.4276C29.7976 21.6676 29.0851 22.0126 28.4326 22.4476C31.0876 22.4551 33.6826 23.2051 35.9326 24.6151C38.2276 26.1151 40.2751 28.7251 40.7851 33.1126C41.8876 42.6301 33.6376 54.4576 33.0001 55.3201C33.8326 54.3601 44.3551 41.9401 43.6651 31.3801C43.0801 22.4476 35.1376 19.9351 30.5401 21.4276Z" fill="#C62828"/>
<path d="M24 30.885C23.535 30.2475 23.01 29.6625 22.425 29.1375C20.85 27.5325 18.6675 26.6775 16.425 26.7975C14.8875 26.8875 13.38 27.285 12 27.9825C12 27.9825 14.25 27.3 17.31 29.01C18.9075 29.9325 20.295 31.17 21.405 32.64C21.765 33.2025 22.23 33.6825 22.7775 34.065C23.3475 34.4325 24.0975 34.365 24.6 33.9075C25.2675 33.0975 24.75 31.9125 24 30.885Z" fill="#C62828"/>
<path d="M9.89987 36.0001C9.92987 35.3701 10.0424 34.7476 10.2299 34.1476C10.5374 32.8876 11.4299 31.8451 12.6224 31.3426C13.7699 30.9826 15.3599 31.2376 15.9749 32.3851C16.5224 33.4051 16.1249 34.6351 15.8249 35.7601C15.5549 37.0501 15.4049 38.3701 15.3749 39.6901C15.3824 40.7701 14.5199 41.6476 13.4399 41.6626C12.4199 41.6626 11.6249 40.7776 11.0549 39.9301C10.2599 38.7751 9.85487 37.4026 9.89987 36.0001Z" fill="#FF847A"/>
<defs>
<radialGradient id="paint0_radial_196_157" cx="0" cy="0" r="1" gradientUnits="userSpaceOnUse" gradientTransform="translate(47.7002 47.175) scale(42.7198 42.7198)">
<stop offset="0.5" stop-color="#FDE030"/>
<stop offset="0.92" stop-color="#F7C02B"/>
<stop offset="1" stop-color="#F4A223"/>
</radialGradient>
<radialGradient id="paint1_radial_196_157" cx="0" cy="0" r="1" gradientUnits="userSpaceOnUse" gradientTransform="translate(25.6499 48.8328) scale(14.3039 12.8443)">
<stop stop-color="#ED7770"/>
<stop offset="0.9" stop-color="#ED7770" stop-opacity="0"/>
</radialGradient>
<radialGradient id="paint2_radial_196_157" cx="0" cy="0" r="1" gradientUnits="userSpaceOnUse" gradientTransform="translate(92.3402 1895.69) scale(14.595 14.595)">
<stop stop-color="#ED7770"/>
<stop offset="0.9" stop-color="#ED7770" stop-opacity="0"/>
</radialGradient>
</defs>
</svg>
