<svg width="80" height="76" viewBox="0 0 80 76" fill="none" xmlns="http://www.w3.org/2000/svg">
<path d="M62.2196 56.1231L79.3491 72.3961C80.217 73.2205 80.217 74.5572 79.3491 75.3817C78.4813 76.2061 77.0743 76.2061 76.2064 75.3817L59.0769 59.1086C52.8087 64.3656 44.5743 67.5556 35.5556 67.5556C15.9188 67.5556 0 52.4327 0 33.7778C0 15.1228 15.9188 0 35.5556 0C55.1924 0 71.1111 15.1228 71.1111 33.7778C71.1111 42.3456 67.7533 50.1683 62.2196 56.1231ZM35.5556 63.3333C52.7378 63.3333 66.6667 50.1009 66.6667 33.7778C66.6667 17.4547 52.7378 4.22222 35.5556 4.22222C18.3734 4.22222 4.44444 17.4547 4.44444 33.7778C4.44444 50.1009 18.3734 63.3333 35.5556 63.3333Z" fill="#6A6A6A"/>
</svg>
